<?xml version="1.0" encoding="UTF-8"?>
<!DOCTYPE svg PUBLIC "-//W3C//DTD SVG 1.1//EN" "http://www.w3.org/Graphics/SVG/1.1/DTD/svg11.dtd">
<svg xmlns="http://www.w3.org/2000/svg" xmlns:xlink="http://www.w3.org/1999/xlink" version="1.1" width="301px" height="301px" viewBox="-0.5 -0.5 301 301"><defs/><g><rect x="0" y="0" width="80" height="80" fill="#6b75e6" stroke="none" pointer-events="all"/><rect x="20" y="90" width="40" height="80" fill="#6b75e6" stroke="none" transform="rotate(90,40,130)" pointer-events="none"/><rect x="20" y="130" width="40" height="80" fill="#97a1f0" stroke="none" transform="rotate(90,40,170)" pointer-events="none"/><rect x="110" y="0" width="80" height="80" fill="#6b75e6" stroke="none" pointer-events="none"/><rect x="220" y="0" width="80" height="80" fill="#6b75e6" stroke="none" pointer-events="none"/><rect x="130" y="90" width="40" height="80" fill="#6b75e6" stroke="none" transform="rotate(90,150,130)" pointer-events="none"/><rect x="130" y="130" width="40" height="80" fill="#97a1f0" stroke="none" transform="rotate(90,150,170)" pointer-events="none"/><rect x="240" y="90" width="40" height="80" fill="#6b75e6" stroke="none" transform="rotate(90,260,130)" pointer-events="none"/><rect x="240" y="130" width="40" height="80" fill="#97a1f0" stroke="none" transform="rotate(90,260,170)" pointer-events="none"/><rect x="0" y="220" width="80" height="80" fill="#97a1f0" stroke="none" pointer-events="none"/><rect x="110" y="220" width="80" height="80" fill="#72da73" stroke="none" pointer-events="none"/><rect x="220" y="220" width="80" height="80" fill="#72da73" stroke="none" pointer-events="none"/></g></svg>